<mxfile host="app.diagrams.net" agent="Mozilla/5.0 (Windows NT 10.0; Win64; x64) AppleWebKit/537.36 (KHTML, like Gecko) Chrome/136.0.0.0 Safari/537.36 Edg/136.0.0.0" version="27.0.6">
  <diagram name="Page-1" id="Ns5OD4MtxLK3nXofLq6w">
    <mxGraphModel dx="1042" dy="616" grid="1" gridSize="10" guides="1" tooltips="1" connect="1" arrows="1" fold="1" page="1" pageScale="1" pageWidth="850" pageHeight="1100" math="0" shadow="0">
      <root>
        <mxCell id="0" />
        <mxCell id="1" parent="0" />
        <mxCell id="O2iXJdVgCGWquD9FhEJq-1" value="DB" style="shape=cylinder3;whiteSpace=wrap;html=1;boundedLbl=1;backgroundOutline=1;size=15;" parent="1" vertex="1">
          <mxGeometry x="740" y="10" width="80" height="100" as="geometry" />
        </mxCell>
        <mxCell id="O2iXJdVgCGWquD9FhEJq-11" style="edgeStyle=orthogonalEdgeStyle;rounded=0;orthogonalLoop=1;jettySize=auto;html=1;exitX=0;exitY=0.5;exitDx=0;exitDy=0;entryX=0.5;entryY=0;entryDx=0;entryDy=0;fillColor=#60a917;strokeColor=#2D7600;" parent="1" source="O2iXJdVgCGWquD9FhEJq-2" target="O2iXJdVgCGWquD9FhEJq-10" edge="1">
          <mxGeometry relative="1" as="geometry">
            <Array as="points">
              <mxPoint x="510" y="140" />
              <mxPoint x="360" y="140" />
            </Array>
          </mxGeometry>
        </mxCell>
        <mxCell id="O2iXJdVgCGWquD9FhEJq-2" value="DA" style="whiteSpace=wrap;html=1;aspect=fixed;" parent="1" vertex="1">
          <mxGeometry x="510" y="20" width="80" height="80" as="geometry" />
        </mxCell>
        <mxCell id="O2iXJdVgCGWquD9FhEJq-4" value="" style="endArrow=classic;startArrow=classic;html=1;rounded=0;exitX=1;exitY=0.5;exitDx=0;exitDy=0;" parent="1" source="O2iXJdVgCGWquD9FhEJq-2" target="O2iXJdVgCGWquD9FhEJq-1" edge="1">
          <mxGeometry width="50" height="50" relative="1" as="geometry">
            <mxPoint x="490" y="210" as="sourcePoint" />
            <mxPoint x="540" y="160" as="targetPoint" />
            <Array as="points" />
          </mxGeometry>
        </mxCell>
        <mxCell id="O2iXJdVgCGWquD9FhEJq-12" style="edgeStyle=orthogonalEdgeStyle;rounded=0;orthogonalLoop=1;jettySize=auto;html=1;exitX=0.5;exitY=1;exitDx=0;exitDy=0;fillColor=#60a917;strokeColor=#2D7600;" parent="1" source="O2iXJdVgCGWquD9FhEJq-6" target="O2iXJdVgCGWquD9FhEJq-10" edge="1">
          <mxGeometry relative="1" as="geometry" />
        </mxCell>
        <mxCell id="O2iXJdVgCGWquD9FhEJq-6" value="BL" style="whiteSpace=wrap;html=1;aspect=fixed;" parent="1" vertex="1">
          <mxGeometry x="320" y="20" width="80" height="80" as="geometry" />
        </mxCell>
        <mxCell id="O2iXJdVgCGWquD9FhEJq-8" style="edgeStyle=orthogonalEdgeStyle;rounded=0;orthogonalLoop=1;jettySize=auto;html=1;entryX=0;entryY=0.5;entryDx=0;entryDy=0;" parent="1" source="O2iXJdVgCGWquD9FhEJq-7" target="O2iXJdVgCGWquD9FhEJq-6" edge="1">
          <mxGeometry relative="1" as="geometry" />
        </mxCell>
        <mxCell id="O2iXJdVgCGWquD9FhEJq-9" style="edgeStyle=orthogonalEdgeStyle;rounded=0;orthogonalLoop=1;jettySize=auto;html=1;exitX=0.5;exitY=1;exitDx=0;exitDy=0;entryX=0.5;entryY=1;entryDx=0;entryDy=0;" parent="1" source="O2iXJdVgCGWquD9FhEJq-7" target="O2iXJdVgCGWquD9FhEJq-2" edge="1">
          <mxGeometry relative="1" as="geometry" />
        </mxCell>
        <mxCell id="O2iXJdVgCGWquD9FhEJq-13" style="edgeStyle=orthogonalEdgeStyle;rounded=0;orthogonalLoop=1;jettySize=auto;html=1;exitX=0.5;exitY=1;exitDx=0;exitDy=0;entryX=0.5;entryY=0;entryDx=0;entryDy=0;fillColor=#60a917;strokeColor=#2D7600;" parent="1" source="O2iXJdVgCGWquD9FhEJq-16" target="O2iXJdVgCGWquD9FhEJq-10" edge="1">
          <mxGeometry relative="1" as="geometry" />
        </mxCell>
        <mxCell id="O2iXJdVgCGWquD9FhEJq-7" value="PL" style="whiteSpace=wrap;html=1;aspect=fixed;" parent="1" vertex="1">
          <mxGeometry x="110" y="20" width="80" height="80" as="geometry" />
        </mxCell>
        <mxCell id="O2iXJdVgCGWquD9FhEJq-10" value="IL" style="rounded=1;whiteSpace=wrap;html=1;" parent="1" vertex="1">
          <mxGeometry x="300" y="250" width="120" height="60" as="geometry" />
        </mxCell>
        <mxCell id="O2iXJdVgCGWquD9FhEJq-15" value="" style="edgeStyle=orthogonalEdgeStyle;rounded=0;orthogonalLoop=1;jettySize=auto;html=1;exitX=0.5;exitY=1;exitDx=0;exitDy=0;entryX=0.5;entryY=0;entryDx=0;entryDy=0;fillColor=#60a917;strokeColor=#2D7600;" parent="1" source="O2iXJdVgCGWquD9FhEJq-7" target="O2iXJdVgCGWquD9FhEJq-16" edge="1">
          <mxGeometry relative="1" as="geometry">
            <mxPoint x="150" y="100" as="sourcePoint" />
            <mxPoint x="360" y="180" as="targetPoint" />
          </mxGeometry>
        </mxCell>
        <mxCell id="O2iXJdVgCGWquD9FhEJq-16" value="PL has access into IL only to get access to BL and DA" style="text;html=1;align=center;verticalAlign=middle;whiteSpace=wrap;rounded=0;fontSize=14;fillColor=#1ba1e2;fontColor=#ffffff;strokeColor=#006EAF;" parent="1" vertex="1">
          <mxGeometry x="60" y="150" width="140" height="60" as="geometry" />
        </mxCell>
        <mxCell id="O2iXJdVgCGWquD9FhEJq-17" value="" style="endArrow=none;dashed=1;html=1;rounded=0;" parent="1" edge="1">
          <mxGeometry width="50" height="50" relative="1" as="geometry">
            <mxPoint y="440" as="sourcePoint" />
            <mxPoint x="890.800048828125" y="440" as="targetPoint" />
          </mxGeometry>
        </mxCell>
        <mxCell id="O2iXJdVgCGWquD9FhEJq-20" value="BL in Zoom" style="text;html=1;align=center;verticalAlign=middle;whiteSpace=wrap;rounded=0;fontSize=18;fillColor=#0050ef;fontColor=#ffffff;strokeColor=#001DBC;" parent="1" vertex="1">
          <mxGeometry x="380" y="400" width="130" height="30" as="geometry" />
        </mxCell>
        <mxCell id="O2iXJdVgCGWquD9FhEJq-23" value="Chat Service" style="ellipse;whiteSpace=wrap;html=1;aspect=fixed;" parent="1" vertex="1">
          <mxGeometry x="130" y="520" width="80" height="80" as="geometry" />
        </mxCell>
        <mxCell id="O2iXJdVgCGWquD9FhEJq-24" value="User Service" style="ellipse;whiteSpace=wrap;html=1;aspect=fixed;" parent="1" vertex="1">
          <mxGeometry x="330" y="750" width="80" height="80" as="geometry" />
        </mxCell>
        <mxCell id="O2iXJdVgCGWquD9FhEJq-25" value="Project Service" style="ellipse;whiteSpace=wrap;html=1;aspect=fixed;" parent="1" vertex="1">
          <mxGeometry x="130" y="840" width="80" height="80" as="geometry" />
        </mxCell>
        <mxCell id="O2iXJdVgCGWquD9FhEJq-31" style="edgeStyle=orthogonalEdgeStyle;rounded=0;orthogonalLoop=1;jettySize=auto;html=1;entryX=0.5;entryY=1;entryDx=0;entryDy=0;" parent="1" source="O2iXJdVgCGWquD9FhEJq-32" target="O2iXJdVgCGWquD9FhEJq-25" edge="1">
          <mxGeometry relative="1" as="geometry">
            <Array as="points">
              <mxPoint x="170" y="960" />
              <mxPoint x="170" y="960" />
            </Array>
          </mxGeometry>
        </mxCell>
        <mxCell id="O2iXJdVgCGWquD9FhEJq-27" value="Tasks Service" style="ellipse;whiteSpace=wrap;html=1;" parent="1" vertex="1">
          <mxGeometry x="290" y="1040" width="120" height="80" as="geometry" />
        </mxCell>
        <mxCell id="O2iXJdVgCGWquD9FhEJq-33" value="" style="edgeStyle=orthogonalEdgeStyle;rounded=0;orthogonalLoop=1;jettySize=auto;html=1;entryX=0.5;entryY=1;entryDx=0;entryDy=0;" parent="1" source="O2iXJdVgCGWquD9FhEJq-27" target="O2iXJdVgCGWquD9FhEJq-32" edge="1">
          <mxGeometry relative="1" as="geometry">
            <mxPoint x="290" y="1080" as="sourcePoint" />
            <mxPoint x="170" y="920" as="targetPoint" />
          </mxGeometry>
        </mxCell>
        <mxCell id="O2iXJdVgCGWquD9FhEJq-32" value="Composition" style="text;html=1;align=center;verticalAlign=middle;whiteSpace=wrap;rounded=0;" parent="1" vertex="1">
          <mxGeometry x="140" y="980" width="60" height="30" as="geometry" />
        </mxCell>
        <mxCell id="1aDfI1uz7MUrI456LitT-5" style="edgeStyle=orthogonalEdgeStyle;rounded=0;orthogonalLoop=1;jettySize=auto;html=1;" parent="1" source="1aDfI1uz7MUrI456LitT-3" target="O2iXJdVgCGWquD9FhEJq-23" edge="1">
          <mxGeometry relative="1" as="geometry" />
        </mxCell>
        <mxCell id="1aDfI1uz7MUrI456LitT-3" value="Connection :&lt;br&gt;Dictionary (Task ID , Dictionary(userID,socket))&lt;div&gt;Dictionary (Project ID , Dictionary(userID,socket))&lt;br&gt;&lt;br&gt;handler:&lt;br&gt;broadcast&lt;/div&gt;" style="rounded=1;whiteSpace=wrap;html=1;align=left;verticalAlign=top;" parent="1" vertex="1">
          <mxGeometry x="280" y="485" width="400" height="150" as="geometry" />
        </mxCell>
        <mxCell id="u161V3Ms_ecYjeftPh36-1" value="Email Service" style="ellipse;whiteSpace=wrap;html=1;aspect=fixed;" vertex="1" parent="1">
          <mxGeometry x="660" y="680" width="80" height="80" as="geometry" />
        </mxCell>
        <mxCell id="u161V3Ms_ecYjeftPh36-2" value="Image Service" style="ellipse;whiteSpace=wrap;html=1;aspect=fixed;" vertex="1" parent="1">
          <mxGeometry x="660" y="780" width="80" height="80" as="geometry" />
        </mxCell>
        <mxCell id="u161V3Ms_ecYjeftPh36-3" value="Add User" style="shape=step;perimeter=stepPerimeter;whiteSpace=wrap;html=1;fixedSize=1;" vertex="1" parent="1">
          <mxGeometry x="460" y="700" width="120" height="50" as="geometry" />
        </mxCell>
      </root>
    </mxGraphModel>
  </diagram>
</mxfile>
